<svg xmlns="http://www.w3.org/2000/svg" width="384" height="341" viewBox="0 0 384 341">
<g fill="none" stroke="#D4AF37" stroke-width="2" stroke-linecap="round" stroke-linejoin="round">
<path d="M 103.0 0.0 L 100.0 2.0 L 101.0 13.0 L 98.0 18.0 L 100.0 28.0 L 124.0 32.0 L 145.0 69.0 L 144.0 82.0 L 135.0 85.0 L 118.0 68.0"/>
<path d="M 69.0 131.0 L 29.0 157.0 L 21.0 174.0 L 3.0 189.0 L 0.0 199.0"/>
<path d="M 244.0 45.0 L 243.0 27.0"/>
<path d="M 260.0 39.0 L 244.0 24.0"/>
<path d="M 219.0 23.0 L 241.0 23.0"/>
<path d="M 73.0 115.0 L 83.0 149.0 L 89.0 156.0 L 99.0 159.0"/>
<path d="M 227.0 113.0 L 242.0 127.0"/>
<path d="M 224.0 147.0 L 241.0 130.0"/>
<path d="M 120.0 157.0 L 133.0 163.0 L 139.0 169.0 L 150.0 193.0 L 166.0 203.0 L 167.0 206.0 L 161.0 209.0 L 145.0 206.0 L 133.0 192.0 L 116.0 183.0 L 100.0 160.0"/>
<path d="M 321.0 90.0 L 332.0 79.0"/>
<path d="M 267.0 23.0 L 246.0 23.0"/>
<path d="M 0.0 60.0 L 1.0 40.0"/>
<path d="M 349.0 63.0 L 336.0 76.0"/>
<path d="M 24.0 23.0 L 26.0 30.0"/>
<path d="M 303.0 242.0 L 289.0 256.0"/>
<path d="M 334.0 96.0 L 334.0 80.0"/>
<path d="M 303.0 272.0 L 290.0 259.0"/>
<path d="M 271.0 128.0 L 246.0 128.0"/>
<path d="M 243.0 155.0 L 242.0 130.0"/>
<path d="M 243.0 101.0 L 243.0 126.0"/>
<path d="M 267.0 257.0 L 286.0 257.0"/>
<path d="M 215.0 128.0 L 241.0 128.0"/>
<path d="M 309.0 257.0 L 291.0 258.0"/>
<path d="M 0.0 19.0 L 1.0 15.0 L 8.0 11.0 L 15.0 11.0 L 23.0 16.0"/>
<path d="M 355.0 77.0 L 338.0 78.0"/>
<path d="M 288.0 237.0 L 287.0 254.0"/>
<path d="M 263.0 147.0 L 245.0 129.0"/>
<path d="M 113.0 154.0 L 116.0 150.0 L 115.0 140.0 L 100.0 115.0 L 98.0 98.0 L 103.0 86.0 L 118.0 68.0"/>
<path d="M 16.0 43.0 L 12.0 68.0 L 17.0 76.0 L 26.0 76.0 L 53.0 66.0 L 56.0 81.0 L 46.0 106.0 L 17.0 135.0 L 1.0 170.0 L 0.0 178.0"/>
<path d="M 68.0 0.0 L 59.0 3.0"/>
<path d="M 320.0 63.0 L 333.0 76.0"/>
<path d="M 51.0 10.0 L 42.0 10.0 L 24.0 17.0"/>
<path d="M 334.0 58.0 L 334.0 75.0"/>
<path d="M 260.0 7.0 L 245.0 22.0"/>
<path d="M 230.0 11.0 L 242.0 22.0"/>
<path d="M 314.0 77.0 L 332.0 77.0"/>
<path d="M 227.0 40.0 L 242.0 26.0"/>
<path d="M 243.0 1.0 L 243.0 21.0"/>
<path d="M 273.0 242.0 L 286.0 255.0"/>
<path d="M 273.0 272.0 L 286.0 259.0"/>
<path d="M 349.0 91.0 L 337.0 79.0"/>
<path d="M 263.0 109.0 L 245.0 126.0"/>
<path d="M 288.0 278.0 L 288.0 260.0"/>
<path d="M 71.0 36.0 L 58.0 37.0 L 40.0 51.0 L 31.0 54.0"/>
<path d="M 73.0 35.0 L 77.0 31.0 L 67.0 23.0 L 64.0 15.0 L 56.0 10.0 L 58.0 3.0"/>
<path d="M 8.0 21.0 L 15.0 21.0"/>
<path d="M 18.0 36.0 L 25.0 31.0"/>
<path d="M 29.0 49.0 L 28.0 39.0"/>
</g></svg>