<svg xmlns="http://www.w3.org/2000/svg" width="384" height="341" viewBox="0 0 384 341">
<g fill="none" stroke="#D4AF37" stroke-width="2" stroke-linecap="round" stroke-linejoin="round">
<path d="M 41.0 85.0 L 61.0 105.0"/>
<path d="M 75.0 157.0 L 88.0 170.0"/>
<path d="M 374.0 57.0 L 381.0 63.0"/>
<path d="M 203.0 1.0 L 193.0 13.0 L 191.0 26.0 L 200.0 38.0 L 207.0 41.0"/>
<path d="M 246.0 127.0 L 243.0 120.0"/>
<path d="M 136.0 112.0 L 136.0 132.0"/>
<path d="M 152.0 119.0 L 138.0 133.0"/>
<path d="M 251.0 138.0 L 240.0 137.0"/>
<path d="M 85.0 85.0 L 66.0 105.0"/>
<path d="M 63.0 135.0 L 63.0 110.0"/>
<path d="M 247.0 197.0 L 244.0 200.0 L 237.0 198.0"/>
<path d="M 210.0 58.0 L 204.0 63.0"/>
<path d="M 334.0 144.0 L 334.0 159.0 L 320.0 182.0 L 318.0 194.0 L 305.0 196.0"/>
<path d="M 89.0 189.0 L 89.0 174.0"/>
<path d="M 152.0 150.0 L 138.0 137.0"/>
<path d="M 109.0 171.0 L 92.0 172.0"/>
<path d="M 75.0 185.0 L 87.0 173.0"/>
<path d="M 69.0 171.0 L 87.0 171.0"/>
<path d="M 120.0 119.0 L 135.0 133.0"/>
<path d="M 63.0 78.0 L 63.0 105.0"/>
<path d="M 83.0 126.0 L 64.0 107.0"/>
<path d="M 112.0 135.0 L 133.0 134.0"/>
<path d="M 136.0 157.0 L 137.0 138.0"/>
<path d="M 383.0 81.0 L 379.0 88.0 L 372.0 91.0"/>
<path d="M 89.0 152.0 L 89.0 168.0"/>
<path d="M 253.0 117.0 L 253.0 127.0 L 264.0 152.0"/>
<path d="M 94.0 106.0 L 67.0 106.0"/>
<path d="M 121.0 149.0 L 134.0 135.0"/>
<path d="M 159.0 135.0 L 139.0 134.0"/>
<path d="M 274.0 112.0 L 280.0 138.0"/>
<path d="M 104.0 157.0 L 90.0 169.0"/>
<path d="M 278.0 0.0 L 285.0 9.0 L 286.0 27.0 L 279.0 38.0 L 261.0 49.0 L 270.0 62.0"/>
<path d="M 101.0 183.0 L 91.0 173.0"/>
<path d="M 212.0 1.0 L 206.0 13.0 L 214.0 25.0"/>
<path d="M 43.0 126.0 L 62.0 109.0"/>
<path d="M 238.0 54.0 L 231.0 60.0 L 215.0 66.0"/>
<path d="M 32.0 106.0 L 60.0 106.0"/>
<path d="M 278.0 65.0 L 271.0 63.0"/>
<path d="M 322.0 150.0 L 317.0 137.0"/>
<path d="M 294.0 71.0 L 278.0 65.0"/>
<path d="M 370.0 119.0 L 373.0 109.0 L 372.0 91.0"/>
<path d="M 367.0 152.0 L 363.0 133.0 L 370.0 119.0"/>
<path d="M 225.0 118.0 L 216.0 93.0"/>
<path d="M 373.0 77.0 L 379.0 71.0 L 380.0 65.0"/>
<path d="M 247.0 183.0 L 249.0 164.0 L 239.0 138.0"/>
<path d="M 317.0 172.0 L 322.0 150.0"/>
<path d="M 355.0 80.0 L 331.0 79.0 L 294.0 71.0"/>
<path d="M 225.0 99.0 L 221.0 91.0"/>
<path d="M 350.0 156.0 L 349.0 150.0 L 336.0 137.0 L 331.0 127.0"/>
<path d="M 271.0 151.0 L 264.0 152.0"/>
<path d="M 199.0 62.0 L 197.0 55.0 L 207.0 42.0"/>
<path d="M 348.0 171.0 L 350.0 156.0"/>
<path d="M 256.0 197.0 L 262.0 182.0 L 264.0 152.0"/>
<path d="M 261.0 72.0 L 270.0 64.0"/>
<path d="M 267.0 200.0 L 256.0 200.0"/>
<path d="M 275.0 170.0 L 276.0 159.0"/>
<path d="M 235.0 114.0 L 225.0 99.0"/>
<path d="M 212.0 34.0 L 215.0 26.0"/>
<path d="M 272.0 184.0 L 275.0 170.0"/>
<path d="M 240.0 193.0 L 247.0 186.0"/>
<path d="M 312.0 183.0 L 317.0 172.0"/>
<path d="M 244.0 108.0 L 249.0 88.0 L 261.0 72.0"/>
<path d="M 348.0 186.0 L 367.0 152.0"/>
<path d="M 208.0 41.0 L 212.0 34.0"/>
<path d="M 347.0 196.0 L 348.0 186.0"/>
<path d="M 314.0 136.0 L 300.0 140.0 L 287.0 139.0"/>
<path d="M 338.0 188.0 L 348.0 171.0"/>
<path d="M 217.0 85.0 L 215.0 72.0"/>
<path d="M 278.0 148.0 L 280.0 140.0"/>
<path d="M 323.0 131.0 L 331.0 127.0"/>
<path d="M 232.0 129.0 L 225.0 119.0"/>
<path d="M 214.0 67.0 L 205.0 66.0"/>
<path d="M 271.0 200.0 L 272.0 190.0"/>
</g></svg>