<svg xmlns="http://www.w3.org/2000/svg" width="384" height="341" viewBox="0 0 384 341">
<g fill="none" stroke="#D4AF37" stroke-width="2" stroke-linecap="round" stroke-linejoin="round">
<path d="M 189.0 51.0 L 189.0 57.0 L 198.0 67.0"/>
<path d="M 75.0 301.0 L 63.0 288.0"/>
<path d="M 342.0 90.0 L 330.0 102.0 L 319.0 108.0 L 304.0 111.0 L 263.0 110.0"/>
<path d="M 111.0 164.0 L 117.0 141.0 L 133.0 127.0 L 139.0 124.0 L 166.0 123.0 L 172.0 119.0"/>
<path d="M 272.0 99.0 L 290.0 98.0 L 299.0 93.0"/>
<path d="M 316.0 166.0 L 310.0 143.0 L 297.0 130.0 L 288.0 124.0 L 259.0 123.0 L 253.0 118.0"/>
<path d="M 281.0 94.0 L 299.0 91.0"/>
<path d="M 112.0 110.0 L 159.0 111.0"/>
<path d="M 107.0 82.0 L 125.0 91.0"/>
<path d="M 78.0 270.0 L 63.0 285.0"/>
<path d="M 153.0 99.0 L 133.0 98.0 L 126.0 94.0"/>
<path d="M 61.0 310.0 L 61.0 289.0"/>
<path d="M 45.0 271.0 L 59.0 285.0"/>
<path d="M 318.0 82.0 L 300.0 92.0"/>
<path d="M 361.0 78.0 L 376.0 93.0"/>
<path d="M 235.0 23.0 L 247.0 20.0"/>
<path d="M 292.0 60.0 L 301.0 60.0 L 300.0 50.0 L 292.0 42.0"/>
<path d="M 256.0 139.0 L 243.0 134.0"/>
<path d="M 196.0 28.0 L 178.0 40.0"/>
<path d="M 377.0 72.0 L 377.0 91.0"/>
<path d="M 361.0 109.0 L 375.0 96.0"/>
<path d="M 227.0 24.0 L 234.0 34.0 L 246.0 40.0"/>
<path d="M 45.0 302.0 L 59.0 288.0"/>
<path d="M 38.0 287.0 L 58.0 286.0"/>
<path d="M 377.0 115.0 L 377.0 97.0"/>
<path d="M 354.0 94.0 L 375.0 94.0"/>
<path d="M 190.0 22.0 L 177.0 21.0"/>
<path d="M 144.0 94.0 L 128.0 91.0"/>
<path d="M 260.0 143.0 L 270.0 163.0"/>
<path d="M 61.0 265.0 L 61.0 285.0"/>
<path d="M 85.0 287.0 L 64.0 287.0"/>
<path d="M 148.0 84.0 L 129.0 73.0 L 130.0 68.0 L 134.0 66.0"/>
<path d="M 264.0 75.0 L 285.0 66.0 L 291.0 66.0 L 296.0 70.0"/>
<path d="M 248.0 20.0 L 260.0 18.0 L 274.0 22.0 L 289.0 35.0 L 291.0 41.0"/>
<path d="M 280.0 52.0 L 284.0 45.0 L 290.0 42.0"/>
<path d="M 229.0 126.0 L 208.0 129.0 L 197.0 127.0 L 180.0 118.0 L 173.0 118.0"/>
<path d="M 189.0 78.0 L 198.0 68.0"/>
<path d="M 276.0 178.0 L 280.0 165.0"/>
<path d="M 166.0 48.0 L 177.0 41.0"/>
<path d="M 166.0 78.0 L 152.0 70.0 L 136.0 66.0"/>
<path d="M 281.0 83.0 L 290.0 79.0 L 296.0 72.0"/>
<path d="M 161.0 154.0 L 168.0 141.0 L 183.0 134.0"/>
<path d="M 250.0 37.0 L 254.0 29.0 L 248.0 21.0"/>
<path d="M 255.0 46.0 L 247.0 41.0"/>
<path d="M 258.0 132.0 L 246.0 128.0 L 243.0 133.0"/>
<path d="M 264.0 87.0 L 281.0 83.0"/>
<path d="M 271.0 53.0 L 260.0 49.0"/>
<path d="M 145.0 25.0 L 165.0 18.0 L 176.0 20.0"/>
<path d="M 232.0 125.0 L 253.0 118.0"/>
<path d="M 212.0 62.0 L 199.0 67.0"/>
<path d="M 160.0 86.0 L 148.0 84.0"/>
<path d="M 227.0 68.0 L 220.0 63.0 L 212.0 62.0"/>
<path d="M 171.0 35.0 L 170.0 29.0 L 176.0 22.0"/>
<path d="M 154.0 142.0 L 163.0 134.0 L 177.0 128.0 L 181.0 128.0 L 184.0 133.0"/>
<path d="M 161.0 187.0 L 162.0 179.0 L 158.0 169.0"/>
<path d="M 179.0 81.0 L 172.0 82.0"/>
<path d="M 197.0 138.0 L 186.0 134.0"/>
<path d="M 236.0 136.0 L 219.0 140.0 L 197.0 138.0"/>
<path d="M 148.0 150.0 L 154.0 142.0"/>
<path d="M 163.0 107.0 L 163.0 88.0"/>
<path d="M 146.0 160.0 L 148.0 150.0"/>
<path d="M 264.0 104.0 L 263.0 89.0"/>
<path d="M 278.0 164.0 L 271.0 164.0"/>
<path d="M 280.0 160.0 L 276.0 146.0 L 258.0 132.0"/>
<path d="M 154.0 187.0 L 146.0 165.0"/>
<path d="M 265.0 175.0 L 269.0 166.0"/>
<path d="M 256.0 80.0 L 264.0 75.0"/>
<path d="M 246.0 80.0 L 237.0 79.0 L 227.0 68.0"/>
<path d="M 136.0 34.0 L 142.0 27.0"/>
<path d="M 135.0 64.0 L 133.0 61.0 L 125.0 62.0"/>
<path d="M 272.0 186.0 L 276.0 178.0"/>
<path d="M 156.0 161.0 L 161.0 154.0"/>
<path d="M 158.0 51.0 L 166.0 48.0"/>
<path d="M 125.0 48.0 L 132.0 42.0"/>
<path d="M 264.0 184.0 L 265.0 175.0"/>
<path d="M 124.0 61.0 L 125.0 48.0"/>
<path d="M 146.0 54.0 L 139.0 44.0"/>
<path d="M 153.0 53.0 L 146.0 54.0"/>
</g></svg>