<svg xmlns="http://www.w3.org/2000/svg" width="384" height="341" viewBox="0 0 384 341">
<g fill="none" stroke="#D4AF37" stroke-width="2" stroke-linecap="round" stroke-linejoin="round">
<path d="M 383.0 170.0 L 376.0 186.0 L 356.0 201.0 L 356.0 205.0 L 360.0 207.0 L 377.0 205.0 L 381.0 201.0 L 383.0 191.0"/>
<path d="M 271.0 287.0 L 288.0 287.0"/>
<path d="M 361.0 101.0 L 360.0 112.0 L 349.0 140.0 L 349.0 152.0 L 353.0 162.0 L 362.0 172.0"/>
<path d="M 306.0 273.0 L 293.0 285.0"/>
<path d="M 163.0 5.0 L 149.0 14.0 L 126.0 13.0"/>
<path d="M 373.0 101.0 L 366.0 80.0 L 366.0 65.0 L 371.0 51.0 L 380.0 42.0"/>
<path d="M 85.0 186.0 L 125.0 161.0"/>
<path d="M 291.0 307.0 L 291.0 288.0"/>
<path d="M 114.0 176.0 L 134.0 176.0 L 138.0 183.0 L 129.0 191.0 L 75.0 191.0 L 76.0 180.0 L 93.0 162.0"/>
<path d="M 125.0 98.0 L 110.0 117.0 L 101.0 152.0"/>
<path d="M 377.0 154.0 L 371.0 148.0 L 368.0 138.0 L 368.0 101.0"/>
<path d="M 277.0 300.0 L 289.0 288.0"/>
<path d="M 78.0 104.0 L 79.0 93.0"/>
<path d="M 205.0 147.0 L 212.0 155.0 L 212.0 164.0 L 203.0 175.0 L 192.0 176.0 L 183.0 169.0 L 183.0 162.0 L 190.0 152.0"/>
<path d="M 381.0 81.0 L 381.0 42.0"/>
<path d="M 106.0 51.0 L 100.0 65.0"/>
<path d="M 312.0 287.0 L 294.0 287.0"/>
<path d="M 383.0 15.0 L 380.0 33.0 L 367.0 40.0 L 359.0 52.0 L 357.0 82.0"/>
<path d="M 100.0 35.0 L 108.0 26.0"/>
<path d="M 133.0 0.0 L 81.0 1.0 L 69.0 9.0 L 66.0 21.0"/>
<path d="M 136.0 135.0 L 135.0 144.0 L 125.0 161.0"/>
<path d="M 291.0 268.0 L 291.0 284.0"/>
<path d="M 304.0 300.0 L 293.0 288.0"/>
<path d="M 277.0 274.0 L 290.0 286.0"/>
<path d="M 59.0 67.0 L 57.0 38.0 L 50.0 30.0 L 42.0 28.0"/>
<path d="M 97.0 24.0 L 94.0 23.0 L 95.0 20.0 L 104.0 15.0 L 126.0 13.0"/>
<path d="M 171.0 105.0 L 159.0 90.0 L 136.0 42.0 L 125.0 31.0 L 110.0 26.0"/>
<path d="M 50.0 185.0 L 41.0 167.0 L 41.0 132.0 L 44.0 129.0 L 87.0 129.0"/>
<path d="M 90.0 9.0 L 111.0 7.0 L 126.0 13.0"/>
<path d="M 70.0 150.0 L 59.0 142.0 L 54.0 144.0 L 54.0 152.0 L 63.0 170.0 L 66.0 184.0 L 61.0 195.0 L 50.0 185.0"/>
<path d="M 191.0 199.0 L 175.0 194.0 L 166.0 186.0 L 161.0 176.0 L 160.0 158.0 L 140.0 163.0 L 125.0 161.0"/>
<path d="M 262.0 110.0 L 247.0 104.0 L 221.0 107.0 L 217.0 93.0 L 208.0 84.0 L 199.0 81.0"/>
<path d="M 229.0 156.0 L 223.0 137.0"/>
<path d="M 88.0 123.0 L 90.0 102.0 L 100.0 66.0"/>
<path d="M 87.0 73.0 L 99.0 65.0"/>
<path d="M 61.0 85.0 L 59.0 67.0"/>
<path d="M 224.0 183.0 L 229.0 169.0 L 229.0 156.0"/>
<path d="M 219.0 134.0 L 199.0 120.0"/>
<path d="M 91.0 160.0 L 75.0 153.0"/>
<path d="M 203.0 198.0 L 213.0 194.0 L 224.0 183.0"/>
<path d="M 83.0 16.0 L 90.0 9.0"/>
<path d="M 78.0 92.0 L 65.0 90.0 L 61.0 85.0"/>
<path d="M 261.0 120.0 L 240.0 122.0 L 223.0 135.0"/>
<path d="M 99.0 23.0 L 109.0 22.0"/>
<path d="M 268.0 116.0 L 262.0 110.0"/>
<path d="M 53.0 23.0 L 45.0 23.0 L 42.0 27.0"/>
<path d="M 199.0 95.0 L 193.0 86.0"/>
<path d="M 83.0 82.0 L 83.0 77.0 L 87.0 73.0"/>
<path d="M 201.0 108.0 L 199.0 95.0"/>
<path d="M 91.0 142.0 L 88.0 130.0"/>
<path d="M 80.0 92.0 L 83.0 85.0"/>
<path d="M 194.0 118.0 L 179.0 111.0"/>
<path d="M 96.0 149.0 L 91.0 142.0"/>
<path d="M 75.0 20.0 L 67.0 22.0"/>
</g></svg>