<svg xmlns="http://www.w3.org/2000/svg" width="384" height="342" viewBox="0 0 384 342">
<g fill="none" stroke="#4A4540" stroke-width="2" stroke-linecap="round" stroke-linejoin="round">
<path d="M 44.0 176.0 L 56.0 164.0"/>
<path d="M 127.0 302.0 L 112.0 316.0"/>
<path d="M 81.0 98.0 L 81.0 119.0"/>
<path d="M 339.0 165.0 L 349.0 179.0 L 366.0 180.0"/>
<path d="M 369.0 84.0 L 376.0 89.0 L 379.0 96.0 L 378.0 106.0 L 370.0 118.0"/>
<path d="M 118.0 52.0 L 117.0 26.0"/>
<path d="M 342.0 110.0 L 306.0 104.0 L 295.0 97.0 L 294.0 90.0 L 297.0 84.0 L 305.0 78.0 L 312.0 77.0"/>
<path d="M 220.0 93.0 L 222.0 104.0"/>
<path d="M 96.0 332.0 L 109.0 320.0"/>
<path d="M 64.0 138.0 L 80.0 124.0"/>
<path d="M 73.0 149.0 L 60.0 161.0"/>
<path d="M 63.0 103.0 L 79.0 119.0"/>
<path d="M 96.0 2.0 L 116.0 21.0"/>
<path d="M 56.0 121.0 L 78.0 120.0"/>
<path d="M 99.0 138.0 L 83.0 122.0"/>
<path d="M 82.0 145.0 L 81.0 125.0"/>
<path d="M 383.0 199.0 L 367.0 181.0"/>
<path d="M 88.0 318.0 L 107.0 317.0"/>
<path d="M 58.0 143.0 L 58.0 161.0"/>
<path d="M 133.0 318.0 L 114.0 318.0"/>
<path d="M 260.0 158.0 L 259.0 182.0 L 264.0 191.0"/>
<path d="M 100.0 103.0 L 83.0 119.0"/>
<path d="M 44.0 149.0 L 57.0 162.0"/>
<path d="M 111.0 295.0 L 110.0 316.0"/>
<path d="M 73.0 177.0 L 60.0 165.0"/>
<path d="M 117.0 1.0 L 117.0 20.0"/>
<path d="M 378.0 138.0 L 378.0 129.0 L 370.0 119.0"/>
<path d="M 97.0 42.0 L 116.0 25.0"/>
<path d="M 209.0 144.0 L 213.0 150.0"/>
<path d="M 148.0 23.0 L 121.0 23.0"/>
<path d="M 79.0 163.0 L 61.0 163.0"/>
<path d="M 139.0 43.0 L 120.0 24.0"/>
<path d="M 126.0 333.0 L 113.0 319.0"/>
<path d="M 58.0 182.0 L 59.0 166.0"/>
<path d="M 329.0 98.0 L 342.0 99.0 L 349.0 105.0 L 352.0 113.0 L 369.0 118.0"/>
<path d="M 350.0 162.0 L 354.0 171.0 L 368.0 174.0 L 367.0 179.0"/>
<path d="M 87.0 23.0 L 115.0 22.0"/>
<path d="M 106.0 121.0 L 84.0 121.0"/>
<path d="M 251.0 193.0 L 243.0 194.0"/>
<path d="M 226.0 72.0 L 224.0 88.0 L 227.0 103.0"/>
<path d="M 96.0 304.0 L 108.0 316.0"/>
<path d="M 139.0 2.0 L 119.0 21.0"/>
<path d="M 111.0 340.0 L 110.0 321.0"/>
<path d="M 37.0 163.0 L 55.0 163.0"/>
<path d="M 343.0 51.0 L 344.0 42.0"/>
<path d="M 273.0 7.0 L 260.0 4.0 L 237.0 11.0 L 225.0 25.0 L 224.0 47.0"/>
<path d="M 324.0 67.0 L 314.0 59.0 L 292.0 21.0 L 273.0 7.0"/>
<path d="M 190.0 128.0 L 196.0 120.0 L 197.0 96.0 L 201.0 83.0 L 224.0 49.0"/>
<path d="M 246.0 182.0 L 245.0 153.0"/>
<path d="M 206.0 134.0 L 205.0 126.0 L 218.0 114.0 L 222.0 104.0"/>
<path d="M 246.0 133.0 L 227.0 103.0"/>
<path d="M 255.0 46.0 L 242.0 43.0 L 225.0 48.0"/>
<path d="M 271.0 151.0 L 273.0 145.0 L 253.0 131.0 L 250.0 121.0 L 261.0 105.0 L 268.0 84.0 L 273.0 79.0 L 287.0 74.0"/>
<path d="M 350.0 58.0 L 352.0 45.0 L 348.0 39.0"/>
<path d="M 271.0 53.0 L 255.0 46.0"/>
<path d="M 286.0 70.0 L 271.0 53.0"/>
<path d="M 193.0 152.0 L 187.0 149.0 L 192.0 141.0 L 190.0 128.0"/>
<path d="M 205.0 151.0 L 193.0 152.0"/>
<path d="M 264.0 153.0 L 251.0 153.0"/>
<path d="M 332.0 65.0 L 339.0 57.0"/>
<path d="M 345.0 65.0 L 350.0 58.0"/>
<path d="M 242.0 193.0 L 246.0 183.0"/>
<path d="M 251.0 202.0 L 244.0 203.0"/>
<path d="M 247.0 145.0 L 249.0 138.0"/>
<path d="M 264.0 201.0 L 267.0 201.0 L 268.0 197.0"/>
<path d="M 219.0 146.0 L 210.0 137.0"/>
</g></svg>