<svg xmlns="http://www.w3.org/2000/svg" width="384" height="342" viewBox="0 0 384 342">
<g fill="none" stroke="#4A4540" stroke-width="2" stroke-linecap="round" stroke-linejoin="round">
<path d="M 366.0 294.0 L 379.0 306.0"/>
<path d="M 284.0 139.0 L 279.0 126.0 L 280.0 89.0 L 277.0 73.0 L 271.0 57.0 L 264.0 50.0 L 246.0 41.0 L 252.0 17.0 L 243.0 6.0 L 233.0 5.0 L 222.0 12.0 L 220.0 29.0 L 229.0 39.0 L 227.0 43.0 L 157.0 40.0 L 145.0 46.0 L 145.0 53.0 L 151.0 57.0"/>
<path d="M 57.0 274.0 L 71.0 288.0"/>
<path d="M 366.0 325.0 L 379.0 312.0"/>
<path d="M 86.0 303.0 L 74.0 291.0"/>
<path d="M 263.0 74.0 L 263.0 81.0"/>
<path d="M 134.0 214.0 L 149.0 212.0"/>
<path d="M 122.0 77.0 L 128.0 112.0"/>
<path d="M 326.0 216.0 L 316.0 214.0"/>
<path d="M 359.0 310.0 L 379.0 310.0"/>
<path d="M 382.0 332.0 L 380.0 312.0"/>
<path d="M 0.0 213.0 L 9.0 217.0 L 27.0 217.0 L 30.0 214.0"/>
<path d="M 57.0 304.0 L 70.0 291.0"/>
<path d="M 176.0 66.0 L 176.0 62.0 L 183.0 57.0 L 191.0 62.0 L 191.0 68.0 L 185.0 73.0 L 162.0 67.0 L 156.0 68.0"/>
<path d="M 186.0 78.0 L 193.0 113.0"/>
<path d="M 382.0 288.0 L 380.0 306.0"/>
<path d="M 94.0 289.0 L 75.0 290.0"/>
<path d="M 114.0 77.0 L 105.0 112.0"/>
<path d="M 72.0 309.0 L 72.0 292.0"/>
<path d="M 0.0 197.0 L 9.0 202.0 L 28.0 205.0 L 30.0 210.0"/>
<path d="M 72.0 269.0 L 72.0 286.0"/>
<path d="M 50.0 289.0 L 70.0 289.0"/>
<path d="M 270.0 122.0 L 270.0 104.0 L 263.0 82.0"/>
<path d="M 177.0 78.0 L 169.0 113.0"/>
<path d="M 88.0 274.0 L 73.0 287.0"/>
<path d="M 124.0 64.0 L 124.0 57.0 L 121.0 54.0 L 112.0 54.0 L 107.0 62.0 L 112.0 71.0 L 140.0 66.0 L 149.0 73.0"/>
<path d="M 270.0 183.0 L 255.0 162.0 L 242.0 131.0"/>
<path d="M 180.0 116.0 L 170.0 114.0"/>
<path d="M 189.0 127.0 L 196.0 124.0 L 199.0 119.0 L 199.0 115.0 L 193.0 113.0"/>
<path d="M 265.0 125.0 L 259.0 104.0 L 262.0 82.0"/>
<path d="M 217.0 157.0 L 240.0 131.0"/>
<path d="M 166.0 48.0 L 160.0 49.0 L 151.0 57.0"/>
<path d="M 300.0 200.0 L 284.0 180.0 L 265.0 125.0"/>
<path d="M 187.0 191.0 L 217.0 157.0"/>
<path d="M 163.0 120.0 L 162.0 117.0 L 168.0 114.0"/>
<path d="M 124.0 114.0 L 111.0 114.0"/>
<path d="M 197.0 154.0 L 223.0 104.0 L 219.0 64.0 L 216.0 59.0 L 208.0 56.0 L 166.0 48.0"/>
<path d="M 135.0 117.0 L 133.0 113.0 L 129.0 113.0"/>
<path d="M 121.0 128.0 L 129.0 125.0 L 135.0 117.0"/>
<path d="M 181.0 180.0 L 196.0 156.0"/>
<path d="M 180.0 210.0 L 187.0 191.0"/>
<path d="M 299.0 214.0 L 285.0 213.0 L 285.0 204.0 L 275.0 189.0"/>
<path d="M 168.0 213.0 L 149.0 212.0"/>
<path d="M 315.0 213.0 L 302.0 202.0"/>
<path d="M 161.0 202.0 L 181.0 180.0"/>
<path d="M 178.0 212.0 L 171.0 213.0"/>
<path d="M 113.0 128.0 L 105.0 126.0 L 99.0 120.0 L 98.0 116.0 L 101.0 114.0"/>
<path d="M 178.0 128.0 L 168.0 125.0"/>
</g></svg>