<svg xmlns="http://www.w3.org/2000/svg" width="384" height="342" viewBox="0 0 384 342">
<g fill="none" stroke="#4A4540" stroke-width="2" stroke-linecap="round" stroke-linejoin="round">
<path d="M 249.0 198.0 L 259.0 187.0"/>
<path d="M 280.0 186.0 L 263.0 186.0"/>
<path d="M 341.0 328.0 L 317.0 328.0"/>
<path d="M 58.0 340.0 L 63.0 332.0 L 71.0 327.0 L 88.0 326.0 L 97.0 332.0"/>
<path d="M 129.0 193.0 L 133.0 180.0"/>
<path d="M 275.0 173.0 L 263.0 184.0"/>
<path d="M 300.0 341.0 L 311.0 329.0"/>
<path d="M 146.0 177.0 L 149.0 167.0"/>
<path d="M 100.0 341.0 L 102.0 336.0 L 98.0 333.0"/>
<path d="M 273.0 198.0 L 263.0 189.0"/>
<path d="M 8.0 152.0 L 7.0 144.0 L 16.0 131.0 L 27.0 126.0 L 40.0 126.0 L 52.0 132.0 L 60.0 141.0 L 60.0 146.0 L 48.0 157.0 L 58.0 168.0"/>
<path d="M 261.0 167.0 L 261.0 183.0"/>
<path d="M 313.0 340.0 L 314.0 331.0"/>
<path d="M 247.0 172.0 L 260.0 185.0"/>
<path d="M 242.0 186.0 L 258.0 186.0"/>
<path d="M 115.0 104.0 L 109.0 113.0 L 99.0 115.0"/>
<path d="M 328.0 341.0 L 315.0 330.0"/>
<path d="M 108.0 92.0 L 106.0 101.0 L 97.0 112.0"/>
<path d="M 295.0 311.0 L 312.0 327.0"/>
<path d="M 65.0 341.0 L 77.0 336.0 L 93.0 335.0"/>
<path d="M 0.0 164.0 L 14.0 173.0 L 31.0 176.0 L 48.0 175.0 L 58.0 170.0"/>
<path d="M 15.0 116.0 L 19.0 114.0 L 21.0 107.0 L 17.0 106.0 L 9.0 112.0 L 4.0 108.0 L 0.0 85.0 L 5.0 71.0 L 11.0 65.0 L 22.0 63.0"/>
<path d="M 313.0 304.0 L 313.0 326.0"/>
<path d="M 261.0 204.0 L 262.0 190.0"/>
<path d="M 0.0 51.0 L 35.0 32.0 L 55.0 6.0"/>
<path d="M 286.0 328.0 L 310.0 328.0"/>
<path d="M 333.0 310.0 L 316.0 327.0"/>
<path d="M 108.0 126.0 L 97.0 130.0"/>
<path d="M 86.0 184.0 L 92.0 180.0 L 91.0 174.0"/>
<path d="M 38.0 216.0 L 42.0 200.0 L 25.0 190.0"/>
<path d="M 45.0 48.0 L 24.0 54.0 L 23.0 62.0"/>
<path d="M 104.0 69.0 L 78.0 64.0 L 63.0 68.0 L 56.0 74.0"/>
<path d="M 71.0 115.0 L 61.0 110.0 L 53.0 99.0 L 65.0 86.0 L 65.0 82.0 L 56.0 75.0"/>
<path d="M 66.0 191.0 L 28.0 187.0"/>
<path d="M 50.0 215.0 L 78.0 199.0 L 130.0 177.0"/>
<path d="M 57.0 47.0 L 45.0 48.0"/>
<path d="M 120.0 76.0 L 104.0 69.0"/>
<path d="M 115.0 152.0 L 114.0 136.0 L 108.0 126.0"/>
<path d="M 149.0 82.0 L 135.0 82.0"/>
<path d="M 60.0 16.0 L 57.0 6.0"/>
<path d="M 157.0 128.0 L 152.0 108.0 L 133.0 85.0"/>
<path d="M 73.0 190.0 L 86.0 184.0"/>
<path d="M 158.0 150.0 L 172.0 126.0 L 170.0 117.0 L 176.0 111.0 L 160.0 93.0 L 153.0 92.0"/>
<path d="M 63.0 35.0 L 58.0 31.0 L 60.0 16.0"/>
<path d="M 73.0 49.0 L 57.0 47.0"/>
<path d="M 83.0 52.0 L 73.0 49.0"/>
<path d="M 81.0 116.0 L 71.0 115.0"/>
<path d="M 156.0 144.0 L 157.0 131.0"/>
<path d="M 105.0 169.0 L 111.0 163.0 L 115.0 152.0"/>
<path d="M 76.0 40.0 L 63.0 35.0"/>
<path d="M 85.0 49.0 L 79.0 42.0"/>
<path d="M 134.0 176.0 L 146.0 164.0"/>
</g></svg>