<svg xmlns="http://www.w3.org/2000/svg" width="384" height="341" viewBox="0 0 384 341">
<g fill="none" stroke="#4A4540" stroke-width="2" stroke-linecap="round" stroke-linejoin="round">
<path d="M 285.0 110.0 L 278.0 112.0 L 262.0 129.0 L 262.0 135.0 L 268.0 139.0 L 283.0 134.0"/>
<path d="M 271.0 113.0 L 262.0 110.0 L 263.0 101.0 L 275.0 91.0 L 283.0 73.0 L 299.0 67.0"/>
<path d="M 299.0 195.0 L 307.0 203.0"/>
<path d="M 124.0 109.0 L 110.0 109.0"/>
<path d="M 119.0 120.0 L 109.0 110.0"/>
<path d="M 367.0 209.0 L 374.0 208.0 L 369.0 200.0"/>
<path d="M 69.0 242.0 L 83.0 241.0"/>
<path d="M 96.0 119.0 L 106.0 111.0"/>
<path d="M 292.0 158.0 L 274.0 154.0 L 250.0 139.0 L 233.0 137.0"/>
<path d="M 92.0 109.0 L 104.0 108.0"/>
<path d="M 104.0 242.0 L 88.0 242.0"/>
<path d="M 324.0 292.0 L 325.0 283.0"/>
<path d="M 73.0 229.0 L 84.0 240.0"/>
<path d="M 119.0 97.0 L 109.0 107.0"/>
<path d="M 96.0 252.0 L 87.0 243.0"/>
<path d="M 315.0 160.0 L 315.0 168.0 L 323.0 183.0"/>
<path d="M 272.0 127.0 L 291.0 121.0"/>
<path d="M 95.0 97.0 L 105.0 107.0"/>
<path d="M 162.0 145.0 L 166.0 152.0"/>
<path d="M 370.0 126.0 L 379.0 120.0"/>
<path d="M 234.0 201.0 L 229.0 205.0 L 229.0 211.0 L 235.0 233.0 L 240.0 241.0 L 249.0 240.0"/>
<path d="M 260.0 56.0 L 269.0 52.0 L 283.0 53.0 L 292.0 57.0 L 299.0 66.0"/>
<path d="M 86.0 224.0 L 86.0 239.0"/>
<path d="M 246.0 154.0 L 249.0 174.0 L 241.0 189.0"/>
<path d="M 99.0 229.0 L 88.0 240.0"/>
<path d="M 107.0 93.0 L 107.0 106.0"/>
<path d="M 107.0 125.0 L 107.0 112.0"/>
<path d="M 86.0 259.0 L 86.0 244.0"/>
<path d="M 74.0 253.0 L 84.0 243.0"/>
<path d="M 360.0 126.0 L 339.0 122.0 L 331.0 116.0"/>
<path d="M 340.0 172.0 L 331.0 165.0"/>
<path d="M 311.0 98.0 L 316.0 90.0 L 313.0 82.0"/>
<path d="M 351.0 184.0 L 340.0 172.0"/>
<path d="M 250.0 239.0 L 242.0 228.0 L 240.0 214.0 L 251.0 199.0"/>
<path d="M 326.0 237.0 L 329.0 231.0"/>
<path d="M 350.0 134.0 L 338.0 135.0 L 330.0 132.0"/>
<path d="M 260.0 201.0 L 252.0 198.0"/>
<path d="M 211.0 192.0 L 216.0 186.0 L 214.0 154.0 L 221.0 142.0"/>
<path d="M 358.0 229.0 L 360.0 221.0 L 355.0 215.0"/>
<path d="M 210.0 142.0 L 214.0 138.0 L 221.0 141.0"/>
<path d="M 184.0 154.0 L 195.0 128.0 L 207.0 117.0 L 221.0 118.0 L 230.0 128.0 L 232.0 136.0"/>
<path d="M 298.0 109.0 L 301.0 98.0"/>
<path d="M 307.0 120.0 L 299.0 116.0"/>
<path d="M 226.0 198.0 L 241.0 189.0"/>
<path d="M 200.0 210.0 L 202.0 197.0 L 211.0 192.0"/>
<path d="M 336.0 279.0 L 335.0 271.0 L 327.0 272.0"/>
<path d="M 329.0 176.0 L 330.0 166.0"/>
<path d="M 380.0 152.0 L 381.0 136.0 L 369.0 132.0 L 350.0 134.0"/>
<path d="M 170.0 165.0 L 166.0 156.0"/>
<path d="M 370.0 91.0 L 354.0 61.0"/>
<path d="M 349.0 115.0 L 331.0 115.0"/>
<path d="M 312.0 150.0 L 283.0 134.0"/>
<path d="M 326.0 115.0 L 314.0 107.0"/>
<path d="M 187.0 173.0 L 177.0 172.0 L 171.0 166.0"/>
<path d="M 364.0 197.0 L 351.0 184.0"/>
<path d="M 345.0 213.0 L 324.0 208.0 L 318.0 200.0"/>
<path d="M 339.0 76.0 L 353.0 61.0"/>
<path d="M 377.0 117.0 L 349.0 115.0"/>
<path d="M 330.0 153.0 L 329.0 133.0"/>
<path d="M 294.0 238.0 L 285.0 238.0"/>
<path d="M 379.0 113.0 L 379.0 106.0 L 370.0 91.0"/>
<path d="M 296.0 234.0 L 288.0 231.0 L 284.0 237.0"/>
<path d="M 331.0 224.0 L 308.0 204.0"/>
<path d="M 200.0 164.0 L 210.0 142.0"/>
<path d="M 348.0 281.0 L 349.0 273.0"/>
<path d="M 289.0 211.0 L 260.0 201.0"/>
<path d="M 305.0 218.0 L 289.0 211.0"/>
<path d="M 321.0 96.0 L 339.0 76.0"/>
<path d="M 207.0 220.0 L 210.0 208.0 L 226.0 198.0"/>
<path d="M 313.0 72.0 L 300.0 67.0"/>
<path d="M 373.0 173.0 L 380.0 152.0"/>
<path d="M 197.0 220.0 L 200.0 210.0"/>
<path d="M 342.0 291.0 L 336.0 291.0 L 331.0 283.0"/>
<path d="M 354.0 211.0 L 342.0 203.0"/>
<path d="M 315.0 235.0 L 320.0 227.0 L 305.0 218.0"/>
<path d="M 369.0 198.0 L 373.0 173.0"/>
<path d="M 337.0 196.0 L 330.0 189.0"/>
<path d="M 302.0 94.0 L 301.0 88.0 L 312.0 81.0"/>
<path d="M 241.0 189.0 L 251.0 197.0"/>
<path d="M 331.0 240.0 L 336.0 238.0 L 335.0 235.0"/>
<path d="M 327.0 183.0 L 329.0 176.0"/>
<path d="M 209.0 234.0 L 205.0 229.0 L 207.0 221.0"/>
<path d="M 198.0 236.0 L 196.0 222.0"/>
<path d="M 190.0 172.0 L 200.0 164.0"/>
<path d="M 328.0 130.0 L 327.0 122.0"/>
</g></svg>