<svg xmlns="http://www.w3.org/2000/svg" width="384" height="341" viewBox="0 0 384 341">
<g fill="none" stroke="#D4AF37" stroke-width="2" stroke-linecap="round" stroke-linejoin="round">
<path d="M 215.0 249.0 L 225.0 239.0 L 226.0 228.0 L 215.0 215.0 L 202.0 206.0"/>
<path d="M 212.0 108.0 L 216.0 112.0 L 214.0 120.0"/>
<path d="M 174.0 174.0 L 150.0 187.0 L 136.0 187.0 L 117.0 174.0"/>
<path d="M 232.0 176.0 L 253.0 187.0 L 270.0 188.0 L 286.0 180.0 L 293.0 172.0"/>
<path d="M 179.0 139.0 L 151.0 132.0 L 140.0 126.0 L 132.0 116.0"/>
<path d="M 228.0 139.0 L 260.0 131.0 L 274.0 115.0"/>
<path d="M 198.0 108.0 L 194.0 113.0 L 196.0 120.0"/>
<path d="M 269.0 55.0 L 285.0 71.0 L 290.0 83.0 L 289.0 97.0 L 282.0 109.0 L 274.0 115.0"/>
<path d="M 175.0 191.0 L 178.0 205.0 L 168.0 221.0"/>
<path d="M 262.0 58.0 L 269.0 68.0 L 268.0 80.0 L 262.0 84.0 L 255.0 73.0"/>
<path d="M 216.0 165.0 L 223.0 162.0"/>
<path d="M 190.0 128.0 L 196.0 120.0"/>
<path d="M 243.0 224.0 L 221.0 198.0"/>
<path d="M 186.0 245.0 L 177.0 236.0 L 175.0 226.0 L 168.0 222.0"/>
<path d="M 184.0 154.0 L 185.0 147.0"/>
<path d="M 193.0 165.0 L 184.0 163.0"/>
<path d="M 221.0 195.0 L 223.0 182.0"/>
<path d="M 191.0 199.0 L 184.0 182.0"/>
<path d="M 208.0 255.0 L 190.0 253.0 L 186.0 250.0"/>
<path d="M 149.0 101.0 L 154.0 91.0 L 155.0 77.0 L 148.0 69.0"/>
<path d="M 268.0 114.0 L 260.0 112.0"/>
<path d="M 203.0 119.0 L 196.0 120.0"/>
<path d="M 120.0 106.0 L 113.0 90.0 L 114.0 80.0 L 122.0 64.0 L 130.0 57.0"/>
<path d="M 137.0 113.0 L 144.0 110.0"/>
<path d="M 241.0 240.0 L 243.0 224.0"/>
<path d="M 197.0 184.0 L 185.0 181.0"/>
<path d="M 227.0 250.0 L 241.0 240.0"/>
<path d="M 214.0 183.0 L 222.0 181.0"/>
<path d="M 127.0 113.0 L 120.0 106.0"/>
<path d="M 220.0 129.0 L 214.0 121.0"/>
<path d="M 168.0 241.0 L 163.0 234.0 L 163.0 226.0"/>
<path d="M 210.0 148.0 L 186.0 146.0"/>
<path d="M 146.0 108.0 L 149.0 101.0"/>
<path d="M 170.0 130.0 L 150.0 116.0"/>
<path d="M 244.0 127.0 L 252.0 121.0"/>
<path d="M 184.0 141.0 L 185.0 134.0"/>
<path d="M 217.0 253.0 L 227.0 250.0"/>
<path d="M 136.0 78.0 L 133.0 72.0 L 134.0 65.0"/>
<path d="M 184.0 250.0 L 168.0 241.0"/>
<path d="M 213.0 148.0 L 222.0 145.0"/>
<path d="M 203.0 166.0 L 193.0 165.0"/>
<path d="M 207.0 204.0 L 220.0 198.0"/>
<path d="M 223.0 181.0 L 224.0 167.0"/>
<path d="M 183.0 133.0 L 170.0 130.0"/>
<path d="M 215.0 165.0 L 203.0 166.0"/>
<path d="M 143.0 77.0 L 147.0 70.0"/>
<path d="M 235.0 131.0 L 226.0 133.0"/>
<path d="M 222.0 142.0 L 222.0 134.0"/>
<path d="M 224.0 160.0 L 223.0 145.0"/>
<path d="M 249.0 82.0 L 253.0 73.0"/>
<path d="M 259.0 111.0 L 252.0 99.0 L 249.0 85.0"/>
<path d="M 184.0 179.0 L 183.0 169.0"/>
</g></svg>