<svg xmlns="http://www.w3.org/2000/svg" width="384" height="341" viewBox="0 0 384 341">
<g fill="none" stroke="#D4AF37" stroke-width="2" stroke-linecap="round" stroke-linejoin="round">
<path d="M 383.0 140.0 L 374.0 131.0 L 375.0 120.0 L 360.0 105.0"/>
<path d="M 291.0 213.0 L 302.0 204.0"/>
<path d="M 197.0 135.0 L 190.0 151.0 L 190.0 168.0 L 197.0 183.0 L 216.0 201.0 L 217.0 212.0 L 197.0 238.0 L 195.0 248.0 L 211.0 248.0 L 215.0 234.0 L 235.0 207.0 L 235.0 200.0 L 226.0 184.0 L 237.0 169.0 L 240.0 146.0"/>
<path d="M 54.0 187.0 L 53.0 184.0 L 48.0 184.0 L 42.0 188.0"/>
<path d="M 29.0 81.0 L 39.0 89.0"/>
<path d="M 291.0 190.0 L 301.0 200.0"/>
<path d="M 158.0 139.0 L 156.0 162.0 L 139.0 182.0"/>
<path d="M 320.0 202.0 L 306.0 202.0"/>
<path d="M 287.0 202.0 L 300.0 201.0"/>
<path d="M 316.0 214.0 L 305.0 203.0"/>
<path d="M 0.0 135.0 L 12.0 136.0"/>
<path d="M 187.0 182.0 L 194.0 208.0 L 179.0 227.0 L 175.0 241.0 L 159.0 240.0"/>
<path d="M 1.0 150.0 L 12.0 149.0"/>
<path d="M 340.0 98.0 L 354.0 99.0"/>
<path d="M 121.0 130.0 L 117.0 154.0 L 108.0 171.0"/>
<path d="M 104.0 140.0 L 98.0 155.0 L 101.0 170.0"/>
<path d="M 65.0 148.0 L 68.0 155.0 L 66.0 166.0"/>
<path d="M 316.0 189.0 L 305.0 200.0"/>
<path d="M 303.0 185.0 L 303.0 199.0"/>
<path d="M 350.0 106.0 L 358.0 104.0"/>
<path d="M 303.0 217.0 L 303.0 205.0"/>
<path d="M 188.0 175.0 L 170.0 182.0"/>
<path d="M 44.0 129.0 L 40.0 128.0 L 35.0 120.0"/>
<path d="M 13.0 144.0 L 12.0 136.0"/>
<path d="M 209.0 62.0 L 205.0 51.0 L 194.0 42.0"/>
<path d="M 60.0 196.0 L 46.0 197.0 L 42.0 188.0"/>
<path d="M 51.0 101.0 L 42.0 89.0"/>
<path d="M 96.0 236.0 L 86.0 234.0"/>
<path d="M 175.0 192.0 L 170.0 183.0"/>
<path d="M 189.0 78.0 L 193.0 42.0"/>
<path d="M 37.0 117.0 L 42.0 105.0 L 39.0 92.0"/>
<path d="M 58.0 97.0 L 69.0 79.0 L 85.0 64.0 L 105.0 56.0 L 124.0 57.0 L 151.0 69.0 L 183.0 97.0 L 222.0 116.0 L 231.0 125.0 L 240.0 145.0"/>
<path d="M 174.0 222.0 L 182.0 207.0 L 175.0 192.0"/>
<path d="M 216.0 88.0 L 205.0 85.0"/>
<path d="M 105.0 179.0 L 107.0 172.0"/>
<path d="M 99.0 205.0 L 94.0 199.0 L 94.0 193.0"/>
<path d="M 255.0 125.0 L 251.0 113.0 L 241.0 102.0 L 216.0 88.0"/>
<path d="M 27.0 166.0 L 17.0 162.0 L 7.0 170.0"/>
<path d="M 40.0 185.0 L 27.0 166.0"/>
<path d="M 96.0 190.0 L 103.0 183.0"/>
<path d="M 112.0 205.0 L 110.0 201.0 L 114.0 195.0 L 138.0 182.0"/>
<path d="M 195.0 85.0 L 189.0 78.0"/>
<path d="M 76.0 206.0 L 81.0 199.0 L 93.0 192.0"/>
<path d="M 5.0 167.0 L 13.0 150.0"/>
<path d="M 201.0 80.0 L 209.0 65.0"/>
<path d="M 151.0 184.0 L 139.0 182.0"/>
<path d="M 80.0 186.0 L 81.0 179.0 L 67.0 167.0"/>
<path d="M 254.0 139.0 L 255.0 125.0"/>
<path d="M 77.0 231.0 L 71.0 221.0 L 68.0 205.0 L 80.0 186.0"/>
<path d="M 22.0 123.0 L 34.0 119.0"/>
<path d="M 83.0 235.0 L 77.0 231.0"/>
<path d="M 158.0 183.0 L 151.0 184.0"/>
<path d="M 86.0 223.0 L 93.0 222.0 L 99.0 227.0 L 99.0 235.0 L 96.0 236.0"/>
<path d="M 16.0 130.0 L 22.0 123.0"/>
<path d="M 65.0 189.0 L 65.0 168.0"/>
<path d="M 161.0 235.0 L 168.0 228.0"/>
<path d="M 125.0 230.0 L 128.0 225.0 L 127.0 219.0 L 112.0 205.0"/>
<path d="M 360.0 101.0 L 359.0 94.0"/>
<path d="M 51.0 122.0 L 52.0 110.0"/>
<path d="M 117.0 229.0 L 111.0 216.0 L 99.0 205.0"/>
</g></svg>