<svg xmlns="http://www.w3.org/2000/svg" width="384" height="341" viewBox="0 0 384 341">
<g fill="none" stroke="#D4AF37" stroke-width="2" stroke-linecap="round" stroke-linejoin="round">
<path d="M 271.0 71.0 L 286.0 56.0"/>
<path d="M 143.0 242.0 L 127.0 238.0 L 114.0 222.0 L 84.0 146.0"/>
<path d="M 92.0 243.0 L 83.0 227.0 L 70.0 175.0 L 67.0 151.0"/>
<path d="M 307.0 126.0 L 318.0 115.0"/>
<path d="M 300.0 114.0 L 317.0 114.0"/>
<path d="M 3.0 142.0 L 1.0 136.0 L 7.0 132.0 L 33.0 129.0 L 50.0 120.0 L 55.0 126.0 L 55.0 132.0 L 50.0 139.0"/>
<path d="M 315.0 55.0 L 291.0 55.0"/>
<path d="M 320.0 96.0 L 319.0 112.0"/>
<path d="M 262.0 55.0 L 285.0 54.0"/>
<path d="M 307.0 37.0 L 290.0 53.0"/>
<path d="M 0.0 120.0 L 11.0 122.0 L 31.0 117.0 L 56.0 95.0 L 70.0 90.0"/>
<path d="M 306.0 101.0 L 318.0 113.0"/>
<path d="M 339.0 114.0 L 322.0 114.0"/>
<path d="M 141.0 186.0 L 136.0 178.0"/>
<path d="M 111.0 171.0 L 98.0 130.0 L 103.0 105.0"/>
<path d="M 104.0 178.0 L 139.0 221.0 L 151.0 232.0 L 160.0 234.0"/>
<path d="M 0.0 230.0 L 16.0 203.0 L 39.0 151.0 L 49.0 140.0"/>
<path d="M 333.0 101.0 L 321.0 113.0"/>
<path d="M 320.0 132.0 L 320.0 116.0"/>
<path d="M 117.0 245.0 L 108.0 242.0 L 95.0 225.0 L 80.0 165.0 L 72.0 150.0 L 73.0 137.0 L 81.0 125.0"/>
<path d="M 48.0 149.0 L 31.0 202.0 L 15.0 231.0 L 0.0 245.0"/>
<path d="M 269.0 36.0 L 286.0 53.0"/>
<path d="M 288.0 78.0 L 288.0 57.0"/>
<path d="M 288.0 29.0 L 288.0 53.0"/>
<path d="M 307.0 73.0 L 290.0 56.0"/>
<path d="M 59.0 247.0 L 54.0 242.0 L 51.0 221.0 L 52.0 172.0 L 59.0 142.0"/>
<path d="M 333.0 127.0 L 321.0 115.0"/>
<path d="M 128.0 140.0 L 127.0 117.0 L 135.0 78.0 L 134.0 57.0 L 128.0 51.0 L 120.0 51.0 L 98.0 68.0"/>
<path d="M 77.0 70.0 L 73.0 63.0 L 58.0 60.0 L 53.0 50.0"/>
<path d="M 115.0 152.0 L 107.0 130.0 L 104.0 105.0"/>
<path d="M 52.0 74.0 L 52.0 69.0 L 44.0 61.0 L 52.0 50.0"/>
<path d="M 64.0 43.0 L 53.0 49.0"/>
<path d="M 77.0 42.0 L 64.0 43.0"/>
<path d="M 88.0 46.0 L 77.0 42.0"/>
<path d="M 75.0 77.0 L 77.0 70.0"/>
<path d="M 132.0 162.0 L 128.0 140.0"/>
<path d="M 69.0 84.0 L 66.0 80.0 L 58.0 81.0"/>
<path d="M 84.0 99.0 L 76.0 92.0"/>
<path d="M 94.0 53.0 L 88.0 46.0"/>
<path d="M 125.0 169.0 L 116.0 155.0"/>
<path d="M 81.0 113.0 L 75.0 93.0"/>
<path d="M 132.0 176.0 L 125.0 169.0"/>
<path d="M 97.0 93.0 L 97.0 69.0"/>
<path d="M 86.0 115.0 L 84.0 99.0"/>
<path d="M 93.0 113.0 L 97.0 93.0"/>
<path d="M 73.0 84.0 L 75.0 77.0"/>
<path d="M 97.0 63.0 L 95.0 55.0"/>
<path d="M 136.0 172.0 L 132.0 162.0"/>
</g></svg>